<svg width="50" height="50" viewBox="0 0 50 50" fill="none" xmlns="http://www.w3.org/2000/svg">
<path d="M20.8334 14.5833C20.8329 17.4805 21.6955 20.3121 23.3109 22.7171C24.9264 25.1221 27.2215 26.9914 29.9037 28.0866C32.5859 29.1818 35.5335 29.4533 38.3706 28.8665C41.2077 28.2796 43.8058 26.8611 45.8334 24.7917V25C45.8334 36.5062 36.5063 45.8333 25 45.8333C13.4938 45.8333 4.16669 36.5062 4.16669 25C4.16669 13.4937 13.4938 4.16666 25 4.16666H25.2084C23.8209 5.52317 22.7191 7.14367 21.9677 8.93266C21.2163 10.7217 20.8306 12.6429 20.8334 14.5833ZM8.33335 25C8.33184 28.7187 9.57404 32.3311 11.8623 35.2624C14.1506 38.1937 17.3534 40.2756 20.9613 41.1767C24.5692 42.0778 28.3748 41.7465 31.7726 40.2354C35.1705 38.7242 37.9653 36.1202 39.7125 32.8375C36.603 33.5701 33.3579 33.496 30.2851 32.6223C27.2122 31.7486 24.4136 30.1043 22.1546 27.8454C19.8957 25.5864 18.2514 22.7878 17.3777 19.7149C16.504 16.6421 16.4299 13.397 17.1625 10.2875C14.495 11.7086 12.2642 13.8285 10.7089 16.4201C9.15362 19.0117 8.33247 21.9775 8.33335 25Z" fill="white"/>
</svg>
