<svg width="79" height="79" viewBox="0 0 79 79" fill="none" xmlns="http://www.w3.org/2000/svg">
<g clip-path="url(#clip0_17_60)">
<path d="M31.5 19.75C41.8708 19.75 50.8167 25.8725 52.8354 34.3321L54.0229 39.2696L60.0792 39.6317C63.0548 39.7981 65.8442 40.8956 67.8859 42.7034C69.9276 44.5112 71.07 46.895 71.0833 49.375C71.0833 54.8062 65.7396 59.25 59.2083 59.25H7.75C-0.997917 59.25 -8.08333 53.3579 -8.08333 46.0833C-8.08333 39.3354 -2.02708 33.7067 6.00833 33.0154L10.2437 32.6533L12.2229 29.5262C14.0433 26.5795 16.8061 24.1076 20.2074 22.3827C23.6086 20.6578 27.5162 19.7468 31.5 19.75ZM31.5 13.1667C20.0604 13.1667 10.125 18.565 5.17708 26.465C-0.640742 26.9878 -6.02102 29.2801 -9.92994 32.9013C-13.8389 36.5225 -16.0007 41.2172 -16 46.0833C-16 56.9787 -5.35208 65.8333 7.75 65.8333H59.2083C70.1333 65.8333 79 58.46 79 49.375C79 40.685 70.8854 33.6408 60.5938 33.0483C59.2641 27.445 55.6364 22.3993 50.3301 18.7732C45.0238 15.147 38.3681 13.1654 31.5 13.1667Z" fill="white"/>
</g>
<defs>
<clipPath id="clip0_17_60">
<rect width="95" height="79" fill="white" transform="translate(-16)"/>
</clipPath>
</defs>
</svg>
