<svg width="202" height="202" viewBox="0 0 202 202" fill="none" xmlns="http://www.w3.org/2000/svg">
<path d="M94.8328 0C87.383 6.94146 81.4077 15.3123 77.2634 24.613C73.119 33.9138 70.8906 43.954 70.711 54.1347C70.5313 64.3153 72.4042 74.4279 76.2178 83.869C80.0315 93.3102 85.7077 101.887 92.908 109.087C100.108 116.286 108.685 121.962 118.127 125.776C127.568 129.589 137.681 131.462 147.863 131.282C158.044 131.103 168.085 128.875 177.386 124.73C186.687 120.586 195.058 114.611 202 107.162C198.785 160.086 154.846 202 101.111 202C45.263 202 0 156.739 0 100.904C0 47.1714 41.9165 3.23507 94.8328 0Z" fill="white"/>
</svg>
